# xmcd CD database file
#
# Track frame offsets:
#	150
#	17753
#	40610
#	43236
#	62641
#	80492
#	84934
#	101575
#	123820
#	142666
#	167601
#	187846
#	209672
#	225201
#	244796
#
# Disc length: 3610 seconds
#
# Revision: 0
# Processed by: cddbd v1.5.1PL0 Copyright (c) Steve Scherf et al.
# Submitted via: CDex 1.51
#
DISCID=b00e180f
DTITLE=Scott Cossu - When Spirits Fly... Again
DYEAR=2004
DGENRE=New Age
TTITLE0=Silver Water Wheel
TTITLE1=Soaring
TTITLE2=Sakura Prelude
TTITLE3=Sakura
TTITLE4=Wolf Heaven
TTITLE5=When Spirits Fly Prelude
TTITLE6=When Spirits Fly
TTITLE7=A Lullaby For Anthony
TTITLE8=Vina Del Mar
TTITLE9=Kalani Honua
TTITLE10=Shady Grove
TTITLE11=Coming Home
TTITLE12=Tranquility
TTITLE13=Hakone
TTITLE14=Calabria (Bonus Track)
EXTD=YEAR: 2004
EXTT0=
EXTT1=
EXTT2=
EXTT3=
EXTT4=
EXTT5=
EXTT6=
EXTT7=
EXTT8=
EXTT9=
EXTT10=
EXTT11=
EXTT12=
EXTT13=
EXTT14=
PLAYORDER=
